<?xml version="1.0" encoding="UTF-8" standalone="no"?>
<!DOCTYPE svg PUBLIC "-//W3C//DTD SVG 1.1//EN" "http://www.w3.org/Graphics/SVG/1.1/DTD/svg11.dtd">
<svg width="100%" height="100%" viewBox="0 0 1024 1024" version="1.1" xmlns="http://www.w3.org/2000/svg" xmlns:xlink="http://www.w3.org/1999/xlink" xml:space="preserve" xmlns:serif="http://www.serif.com/" style="fill-rule:evenodd;clip-rule:evenodd;stroke-linejoin:round;stroke-miterlimit:2;">
    <rect x="0" y="0" width="1024" height="1024" style="fill:rgb(235,235,235);"/>
    <g transform="matrix(0.797535,0,0,0.797535,103.662,151.818)">
        <g transform="matrix(1.48743,0,0,1.48743,169.891,-8.89365)">
            <path d="M227.25,641.7C226.8,640.95 222.85,635.6 218.55,629.8C214.2,624 207.45,614.85 203.5,609.5C195.8,599.05 184.65,583.95 174.5,570.25C171,565.6 165.85,558.6 163,554.75C160.15,550.9 156.65,546.2 155.25,544.25C153.8,542.35 148.85,535.6 144.15,529.25C130.95,511.35 100.1,469.65 86.9,451.85L82,445.25L82,58L229.9,58.1L377.75,58.25L377.9,251.6L378,444.9L373.85,450.6C371.55,453.7 365.85,461.4 361.2,467.7C356.55,474 349.4,483.7 345.25,489.25C341.15,494.85 332.35,506.7 325.8,515.6C319.2,524.5 309.9,537.05 305.15,543.5C300.4,549.95 293.6,559.2 290,564C286.45,568.8 278.25,579.8 271.85,588.45C265.5,597.1 255.9,610.05 250.6,617.2C245.3,624.4 238.85,633.1 236.35,636.6C231.95,642.7 231.7,642.95 229.95,642.95C228.5,643 227.95,642.7 227.25,641.7ZM294.1,522.1C296.55,518.9 299.9,514.45 301.6,512.25C303.3,510.05 306.05,506.45 307.75,504.25C309.45,502.05 312.8,497.65 315.25,494.5C329.95,475.45 337.9,465.1 338.65,464L339.45,462.75L333.1,462.7C325.4,462.65 320.95,461.55 314.3,458.15C310.55,456.2 308.85,454.9 304.6,450.7L299.45,445.55L295.6,449.6C287.45,458.15 278.6,462.25 267,462.85C257.6,463.35 248.5,461 241.55,456.3C238.55,454.3 233.4,449.5 230.55,446C230,445.3 229.55,445.05 229.5,445.35C229.5,446.4 223,452.95 219.7,455.3C215.8,458.1 210.1,460.75 205.65,461.85C200.7,463.05 189.45,463.05 184.5,461.8C176.5,459.8 168.3,454.7 163.1,448.5L160.3,445.15L158.5,447.45C153.05,454.3 145.35,459.35 136.9,461.6C133.7,462.45 131.3,462.7 126.4,462.7C120.8,462.75 120.15,462.85 120.7,463.5C121.05,463.9 126.55,471 132.85,479.25C148.65,499.9 166.5,523.05 167.2,523.8C167.5,524.15 168.3,525.25 169,526.2L170.25,527.95L289.75,527.95L294.1,522.1ZM130.35,444.3C139.1,441.95 146.3,434.7 149.9,424.55L151.25,420.75L151.4,248.9L151.5,77L101,77L100.95,206.65C100.9,414.4 100.95,423.7 101.8,426.15C103.1,429.8 106.3,434.65 109.3,437.55C115.95,443.85 123.25,446.2 130.35,444.3ZM201.05,443.95C210.2,441 217.3,432.85 220,422.3C221,418.35 221,416.85 221,247.65L221,77L169,77L169.1,248.35L169.25,419.75L170.4,423.45C172.7,430.85 177.85,437.8 183.65,441.35C189.65,445 195.25,445.85 201.05,443.95ZM269.25,444.45C278.85,441.8 286.8,433.25 289.5,422.7C290.5,418.9 290.5,416.8 290.5,247.9L290.5,77L239,77L239,136.9C238.95,423.85 238.95,418.6 240,422.7C243.75,437.35 257.6,447.65 269.25,444.45ZM340.1,444C346.9,441.9 353.05,436.4 356.6,429.15L358.75,424.85L358.9,250.9L359,77L308.5,77L308.5,273.45C308.5,434.95 308.2,421.5 312,429.25C314.4,434.2 317.95,438.25 322.4,441.05C328.55,444.95 334.1,445.85 340.1,444Z" style="fill-rule:nonzero;"/>
        </g>
        <g transform="matrix(1.48743,0,0,1.48743,169.891,-8.89365)">
            <path d="M301.215,548.845C297.148,554.367 292.685,560.421 290,564C286.45,568.8 278.25,579.8 271.85,588.45C265.5,597.1 255.9,610.05 250.6,617.2C245.3,624.4 238.85,633.1 236.35,636.6C231.95,642.7 231.7,642.95 229.95,642.95C228.5,643 227.95,642.7 227.25,641.7C226.8,640.95 222.85,635.6 218.55,629.8C214.2,624 207.45,614.85 203.5,609.5C195.8,599.05 184.65,583.95 174.5,570.25C171,565.6 165.85,558.6 163,554.75C161.589,552.844 160.019,550.73 158.624,548.845L301.215,548.845Z" style="fill:rgb(227,42,109);"/>
        </g>
    </g>
</svg>
